<svg id="OBJECTS" xmlns="http://www.w3.org/2000/svg" viewBox="0 0 131.54 138.65"><defs><style>.cls-1{opacity:0.3;}.cls-2{fill:#ffafaf;}.cls-3{fill:#b1704c;}.cls-4{fill:#eacab8;}.cls-5{fill:#5a3a42;}.cls-6{fill:#f16c6c;}.cls-7{fill:#e97070;}.cls-8{fill:#916a51;}.cls-9{fill:#fff;}</style></defs><title>dog-img</title><g class="cls-1"><ellipse class="cls-2" cx="65.73" cy="132.01" rx="43.05" ry="6.64"/></g><g id="Layer0_4_FILL" data-name="Layer0 4 FILL"><path class="cls-3" d="M272.45,418a8.85,8.85,0,0,1-.5-.89l-1.3,7.39a4.57,4.57,0,0,1,1.8,1.39,5.77,5.77,0,0,0,1.1.67,12.94,12.94,0,0,0,2.35.94,9.88,9.88,0,0,0,2.7.5,14.87,14.87,0,0,0,1.95-.11l2.2-2.94a9.1,9.1,0,0,1-4.65-1.23c.34-.3.72-.67,1.15-1.11a12.94,12.94,0,0,0,.9-1,9,9,0,0,1-1.5.11,6.68,6.68,0,0,1-4.4-1.16,8.75,8.75,0,0,1-.7-.78A14.72,14.72,0,0,1,272.45,418Z" transform="translate(-184.27 -313.44)"/><path class="cls-4" d="M284.15,422.07,284,420a5.71,5.71,0,0,1-3.8,1.66,12.94,12.94,0,0,1-.9,1c-.43.44-.81.81-1.15,1.11a9.1,9.1,0,0,0,4.65,1.23l-2.2,2.94c2.81-.37,4.78-1.58,5.9-3.61a7.43,7.43,0,0,0,.85-2.61c0-.78.05-1.19.05-1.22,0-.78-.57-1.82-1.7-3.11a5.73,5.73,0,0,1-.55,3.22,5.84,5.84,0,0,1-1,1.5A4.1,4.1,0,0,1,282,423.4,4.1,4.1,0,0,0,284.15,422.07Z" transform="translate(-184.27 -313.44)"/></g><g id="Layer0_4_1_STROKES" data-name="Layer0 4 1 STROKES"><path class="cls-5" d="M280.37,422.06a6.91,6.91,0,0,0,4-1.79l-.84-.45.2,2.12c0,.31.56.8.84.44a6.75,6.75,0,0,0,1.56-4.9l-.77,0c1.38,1.66,1.87,2.88,1.32,5a6.48,6.48,0,0,1-3.1,4,10,10,0,0,1-5.07,1.09c-2.54-.08-4.24-1.29-6.36-2.54.18.1-1-.66-.89-.47-.06-.08,0,.06,0-.43a10.91,10.91,0,0,1,.42-2.38l.77-4.42-.82-.15c.76,1.44,1.58,3.13,3,4,1.67,1.06,3.92,1,5.81.83l-.61-.72c-.65.72-1.34,1.41-2,2.11-.22.22.1.56.27.66a10.8,10.8,0,0,0,4.86,1.29l-.51-.73c-.73,1-1.46,1.94-2.17,2.92-.29.38.49,1,.77.63.72-1,1.45-2,2.18-2.92.24-.32-.21-.71-.51-.73a10,10,0,0,1-4.39-1.16l.27.67c.69-.7,1.38-1.39,2-2.11.31-.35-.32-.76-.61-.73-1.85.16-4.24.23-5.69-1.19a12.17,12.17,0,0,1-1.9-3c-.11-.2-.75-.58-.82-.15l-1.3,7.39a.54.54,0,0,0,.32.58c1.34.68,2.22,1.79,3.62,2.41a14.37,14.37,0,0,0,3.38,1,10.51,10.51,0,0,0,6.91-1.22,7.16,7.16,0,0,0,3.29-5.23c.24-2-.54-3.21-1.77-4.7-.16-.19-.82-.4-.77,0a6.26,6.26,0,0,1-1.44,4.54l.84.45-.2-2.11c0-.36-.52-.75-.84-.45a6.24,6.24,0,0,1-3.63,1.6c-.55.09,0,.89.44.82Z" transform="translate(-184.27 -313.44)"/><path class="cls-5" d="M282.22,423.81a4.66,4.66,0,0,0,2.32-1.43c.31-.35-.46-1-.78-.63a4,4,0,0,1-2,1.24c-.55.15,0,.94.44.82Z" transform="translate(-184.27 -313.44)"/></g><g id="Layer0_20_FILL" data-name="Layer0 20 FILL"><path class="cls-3" d="M273.9,446.11q.35-1.55-.25-10.5t-.15-20.1l-13.3,5.35q0,4.5,4.4,15.5,4.54,11.4,6.95,11.4c1.37,0,2.15-.55,2.35-1.65m-43.35,1.65q2.4,0,6.95-11.4,4.45-11,4.45-15.5l-13.35-5.35q.41,11.1-.15,20.1t-.25,10.5C228.4,447.21,229.18,447.76,230.55,447.76Z" transform="translate(-184.27 -313.44)"/></g><g id="Layer0_20_1_STROKES" data-name="Layer0 20 1 STROKES"><path class="cls-5" d="M228,435.47c-.18,2.72-.38,5.45-.38,8.18a7.22,7.22,0,0,0,.34,3c1.09,2.23,3.57,1.61,4.85.07,3-3.64,4.67-8.87,6.31-13.22,1.5-3.95,3.18-8.25,3.26-12.53,0-.25-.25-.44-.45-.52l-13.35-5.35a.29.29,0,0,0-.43.24c.23,6.7.24,13.41-.15,20.1,0,.42.85.83.88.28.27-4.51.35-9,.31-13.54,0-.67-.08-6.42-.51-6.28.3-.1,1.4.56,1.68.67l6.72,2.69c1.19.48,3.84,1,4.75,1.9-.06-.06-.19-.17-.36.33a18.68,18.68,0,0,0-.34,2.28,45.42,45.42,0,0,1-1.36,5,101.9,101.9,0,0,1-5.09,12.83c-.57,1.17-4.39,9.11-6.11,4.2a11.31,11.31,0,0,1,0-3.58c.06-2.16.2-4.33.34-6.49C228.92,435.33,228,434.92,228,435.47Z" transform="translate(-184.27 -313.44)"/><path class="cls-5" d="M273.21,435.47a88.62,88.62,0,0,1,.37,9.07c-.05,1.36-.52,3.5-2.54,2.72-.82-.32-1.46-1.49-1.91-2.19-3.62-5.68-6.1-12.79-7.74-19.29-.3-1.18-.48-2.36-.68-3.55-.16-1-.24-.75.28-1.19,1-.86,3.15-1.27,4.38-1.76l8.45-3.4-.76-.51c-.23,6.7-.24,13.41.15,20.1,0,.42.91.82.88.28-.39-6.69-.38-13.4-.15-20.1a.61.61,0,0,0-.76-.51l-13.3,5.35a.26.26,0,0,0-.12.23c.08,4.14,1.66,8.29,3.07,12.12,1.66,4.47,3.34,9.6,6.28,13.44,1.11,1.45,3.47,3.07,4.91.86a6.15,6.15,0,0,0,.45-3.21c0-2.73-.2-5.46-.38-8.18C274.06,435.34,273.17,434.93,273.21,435.47Z" transform="translate(-184.27 -313.44)"/></g><g id="Layer0_21_FILL" data-name="Layer0 21 FILL"><path class="cls-3" d="M225.5,387.91A53.22,53.22,0,0,1,214.65,398q-6.3,4.46-6.35,6.05c0,1,.58,1.65,1.85,1.85a33.91,33.91,0,0,0,15.9-5.1q6.55-4.35,7.65-7.4l-3.7-11.1-4.5,5.6m67.35,16.15q0-1.6-6.25-5.95a63.91,63.91,0,0,1-15.4-15.8l-3.7,11.1q1.1,3,7.65,7.4a33.69,33.69,0,0,0,15.9,5.1C292.28,405.71,292.88,405.09,292.85,404.06Z" transform="translate(-184.27 -313.44)"/></g><g id="Layer0_21_1_STROKES" data-name="Layer0 21 1 STROKES"><path class="cls-5" d="M270.81,382.39a39.12,39.12,0,0,0,4.43,5.75,56.56,56.56,0,0,0,7.64,7.6c2.78,2.26,6.53,4.06,8.77,6.91a2.58,2.58,0,0,1,.75,1.28c.22,2.16-3.56,1.35-4.51,1.2a36.23,36.23,0,0,1-6.24-1.54,32.35,32.35,0,0,1-10.42-6.13c-.76-.65-3.19-2.61-3.29-3.84a4.88,4.88,0,0,1,.46-1.38l3.23-9.7c.15-.42-.7-.94-.86-.46l-3.18,9.53c-.38,1.14-.7,1.57-.12,2.66,1.21,2.26,3.53,4,5.55,5.49a33.42,33.42,0,0,0,8.26,4.49,34.26,34.26,0,0,0,5.07,1.39c1.47.3,3.43.89,4.92.68,5.59-.79-1.77-6.54-3-7.44A69,69,0,0,1,278,390.24a45,45,0,0,1-6.42-8C271.35,381.81,270.49,381.82,270.81,382.39Z" transform="translate(-184.27 -313.44)"/><path class="cls-5" d="M229.61,382a112.16,112.16,0,0,1-8.54,10.05c-3.12,3-6.72,5.34-10.06,8.09-1.16.95-3.24,2.36-3.13,4.07.15,2.22,2.65,2.12,4.24,1.93a35.81,35.81,0,0,0,10.6-2.94,32.74,32.74,0,0,0,8.91-6.1c1-1,2.51-2.41,2.43-3.88-.11-1.88-1.41-4.23-2-6l-1.62-4.86c-.14-.42-1.05-.64-.86-.06l1.54,4.63c.61,1.83,1.74,4,2,5.89.28,2.32-3.42,4.82-5.07,6.05a32.47,32.47,0,0,1-11.38,5.53c-1,.26-8,2.18-7.86-.3.07-.88,1.38-1.88,2-2.41,3.11-2.81,6.76-5,9.86-7.8,3.69-3.37,6.69-7.36,9.81-11.24C230.68,382.26,229.91,381.63,229.61,382Z" transform="translate(-184.27 -313.44)"/></g><g id="Layer0_22_FILL" data-name="Layer0 22 FILL"><path class="cls-3" d="M271.85,379.46H228.8q-.15,1.4-.85,8.25a3.59,3.59,0,0,0-.1.9,7,7,0,0,0-.15,1.05c0,.33-.07.72-.1,1.15s-.15,1-.2,1.55c0,.16,0,.31-.05.45q-.4,3-.7,7a44.6,44.6,0,0,0-.2,5.15q0,12.45,5.2,18.3l.5.5.2.15a4.76,4.76,0,0,0,1.05.95l.4.25a13.33,13.33,0,0,0,2.85,1.55l.4.15c.47.17,1,.37,1.55.6a26.85,26.85,0,0,0,4,.8q2.06.19,8.1.2t8.25-.2a20.31,20.31,0,0,0,5.9-1.6l.35-.15a13.88,13.88,0,0,0,2.45-1.35.94.94,0,0,1,.4-.3c.7-.67,1.37-1.35,2-2.05a8,8,0,0,0,.65-.95q4.37-6.39,3.9-18.8c-.1-1.13-.17-2.2-.2-3.2-.46-3.16-.83-5.95-1.1-8.35-.05-.54-.1-1-.15-1.55a5.13,5.13,0,0,1-.2-1.65c-.13-.27-.17-.47-.1-.6-.6-4.53-.93-7.27-1-8.2m-21.2,15.1a20,20,0,0,1,13,4.3q5.4,4.31,5.4,10.35t-5.4,10.35a21.73,21.73,0,0,1-26,0q-5.35-4.31-5.35-10.35t5.35-10.35A20.2,20.2,0,0,1,250.65,394.56Z" transform="translate(-184.27 -313.44)"/><path class="cls-4" d="M263.6,398.86a21.73,21.73,0,0,0-26,0q-5.35,4.31-5.35,10.35t5.35,10.35a21.73,21.73,0,0,0,26,0q5.4-4.31,5.4-10.35T263.6,398.86Z" transform="translate(-184.27 -313.44)"/></g><g id="Layer0_22_1_STROKES" data-name="Layer0 22 1 STROKES"><path class="cls-5" d="M226.93,392.28c-1.18,10-2.83,22.9,4.38,31.22.39.45,1.15,0,.73-.47-7-8.12-5.32-20.74-4.17-30.54.06-.54-.87-.82-.94-.21Z" transform="translate(-184.27 -313.44)"/><path class="cls-5" d="M236.92,427.21c4.51,1.74,9.1,1.66,13.87,1.66,5.07,0,9.86.06,14.61-2,.56-.24.1-1.09-.4-.88-4.4,1.89-8.79,1.92-13.48,1.93-4.85,0-9.7.22-14.29-1.54a.43.43,0,1,0-.31.8Z" transform="translate(-184.27 -313.44)"/><path class="cls-5" d="M271.11,422.15c5.94-9.11,3.81-20.6,2.65-30.7-.06-.55-1-.61-.92,0,1.12,9.83,3.28,21.18-2.5,30-.31.47.47,1.1.77.63Z" transform="translate(-184.27 -313.44)"/></g><g id="Layer0_23_FILL" data-name="Layer0 23 FILL"><path class="cls-6" d="M273.55,381.11h-46.9a11.25,11.25,0,0,0,0,7.25q22.54,6.45,46.9,0A8.16,8.16,0,0,0,273.55,381.11Z" transform="translate(-184.27 -313.44)"/></g><g id="Layer0_23_1_STROKES" data-name="Layer0 23 1 STROKES"><path class="cls-5" d="M226.75,381.55h43.14c.67,0,3-.4,3.58,0,.83.58.61,4.73,0,5.71-.86,1.34-3.43,1.51-4.86,1.81s-3.14.64-4.72.89a86.68,86.68,0,0,1-21.16.9,80.5,80.5,0,0,1-10.7-1.59c-1.28-.28-3.31-.39-4.44-1.09-1.88-1.16-.93-5.25-.47-6.85.14-.49-.73-1-.88-.44a13.19,13.19,0,0,0-.62,3.74c0,1,0,3.05.63,3.79,1.06,1.21,4.18,1.37,5.74,1.71a84.4,84.4,0,0,0,17.79,1.9,91.53,91.53,0,0,0,18.3-1.9c1.95-.4,5.55-.29,6.28-2.43A8.75,8.75,0,0,0,274,381a.58.58,0,0,0-.51-.33h-46.9C225.92,380.67,226.23,381.55,226.75,381.55Z" transform="translate(-184.27 -313.44)"/></g><g id="Layer0_24_FILL" data-name="Layer0 24 FILL"><path class="cls-4" d="M208.2,372.11H208a24.61,24.61,0,0,0,10.65,9.2,64.84,64.84,0,0,0,17.15,5.25,87.06,87.06,0,0,0,13.55,1.1H252q1.75,0,3.45-.15,3-.15,6-.55a65.91,65.91,0,0,0,19.8-5.65,24.81,24.81,0,0,0,10.1-8.35,27,27,0,0,0,2.4-4.35,28.6,28.6,0,0,0,1.65-5.45,40,40,0,0,0,.8-7.9q.19-19.1-12.65-30.3l-.7-.6c-.8-.67-1.62-1.3-2.45-1.9a40.11,40.11,0,0,0-4.25-2.7c-.58-.33-1.18-.64-1.8-.95-.9-.47-1.8-.88-2.7-1.25a49.34,49.34,0,0,0-19.65-3.7c-.5,0-1,0-1.45.05H249.3c-.47,0-1-.05-1.45-.05-1.51,0-3,0-4.45.15.12.93.25,1.88.4,2.85q.34,3.64.35,12.7,0,20.35-12.85,32.8a36,36,0,0,1-11.7,7.7A26.26,26.26,0,0,1,208.2,372.11Z" transform="translate(-184.27 -313.44)"/><path class="cls-3" d="M225.6,318.76c-.62.3-1.24.62-1.85.95a38.46,38.46,0,0,0-4.2,2.7,27.5,27.5,0,0,0-2.45,1.9c-.27.2-.53.42-.8.65a35.62,35.62,0,0,0-11.5,19,48.06,48.06,0,0,0-1.15,11.3,40.6,40.6,0,0,0,.8,8l.35,1.5a26.75,26.75,0,0,0,3.15,7.35h.25a26.26,26.26,0,0,0,11.4-2.05,36,36,0,0,0,11.7-7.7q12.85-12.45,12.85-32.8,0-9-.35-12.7c-.15-1-.28-1.92-.4-2.85a47.34,47.34,0,0,0-15.1,3.5,25.47,25.47,0,0,0-2.7,1.25m-1.85.95-.4-.4a8.45,8.45,0,0,0-6.4-2.5,14.33,14.33,0,0,0-7.15,2.5,21.57,21.57,0,0,0-6.35,6.5q-2.65,4.15-9.25,16.35c-.3.63-.62,1.25-.95,1.85a17.27,17.27,0,0,1-5.95,6.65,4.39,4.39,0,0,0-1.9,1.85,12.53,12.53,0,0,0-.65,4.8q0,4.15,4.6,6.25a17.12,17.12,0,0,0,3.9,1.2,27.43,27.43,0,0,0,5.15.45q4.11,0,6-1.95a40.6,40.6,0,0,1-.8-8A48.06,48.06,0,0,1,204.8,344a35.62,35.62,0,0,1,11.5-19c.27-.23.53-.45.8-.65a27.5,27.5,0,0,1,2.45-1.9,38.46,38.46,0,0,1,4.2-2.7m90.85,32.8a4.39,4.39,0,0,0-1.9-1.85q-4.09-2.51-6.9-8.5-6.6-12.2-9.3-16.35a21,21,0,0,0-6.3-6.5,14.76,14.76,0,0,0-7.15-2.55,8.63,8.63,0,0,0-6.4,2.55l-.5.45a40.11,40.11,0,0,1,4.25,2.7c.83.6,1.65,1.23,2.45,1.9l.7.6q12.85,11.21,12.65,30.3a40,40,0,0,1-.8,7.9c1.31,1.37,3.37,2,6.2,2a22,22,0,0,0,9-1.65q4.61-2.1,4.6-6.25A12.53,12.53,0,0,0,314.6,352.51Z" transform="translate(-184.27 -313.44)"/></g><g id="Layer0_24_1_STROKES" data-name="Layer0 24 1 STROKES"><path class="cls-5" d="M276.56,320.08c6.93-6.57,15.8,0,19.9,6.44,3.22,5.08,6.16,10.43,8.91,15.77a25,25,0,0,0,4.72,6.89c1.16,1.1,3.34,2,4.08,3.46a10,10,0,0,1,.58,5.19c-.41,3.87-4.26,5.64-7.64,6.38-3.58.77-8.55,1.32-11.44-1.38a.44.44,0,0,0-.74.23c-2.12,9.79-8.59,15.9-17.71,19.46a74.35,74.35,0,0,1-27.15,4.68c-9.5,0-19-1.29-27.88-4.81s-15.11-9.57-17.25-19.12c-.06-.28-.49-.63-.77-.38-2.84,2.52-7.42,2.09-10.88,1.42-4.06-.78-8-2.75-8.06-7.36,0-1.95.07-4.16,1.71-5.46,1-.77,2-1.33,2.94-2.19,2.36-2.2,3.74-5,5.23-7.79,2.71-5.08,5.43-10.22,8.53-15.08,4-6.24,13.16-13.07,19.84-6.39a.48.48,0,0,0,.57.06c8.33-4.44,16.82-5.65,26.13-5.73,9.11-.08,17.79,1.33,25.84,5.8a37.74,37.74,0,0,1,16.55,17.77,43.52,43.52,0,0,1,2.36,25.12c-.11.53.82.8.94.2,2.5-12.61-.38-26.6-9.37-36.07a43.86,43.86,0,0,0-16.25-10.66c-6.9-2.62-13.76-2.93-21-3.08a51.84,51.84,0,0,0-21.81,3.9c-.92.4-2.62,1.76-3.57,1.63-1.1-.14-2.58-1.79-3.8-2.2a11.31,11.31,0,0,0-8.13.82c-5.35,2.42-8.47,7.08-11.3,12-1.66,2.86-3.25,5.75-4.84,8.65-1.85,3.38-3.41,7.14-6.15,9.93-1.23,1.26-3,2-4.11,3.3a5.85,5.85,0,0,0-1.11,3.19c-.32,2.68-.15,5.31,1.82,7.32,2.41,2.44,6.23,3.28,9.52,3.57,3.1.27,6.57.31,9-1.87l-.77-.38c1.48,6.6,4.91,12.4,10.58,16.22,6.12,4.14,13.91,6.29,21.12,7.49,15.22,2.52,32.23,1.39,46.22-5.49a25.69,25.69,0,0,0,13.94-18.26l-.74.23c3.85,3.62,11.45,2.5,15.82.46,2.24-1,4.17-2.74,4.65-5.25.38-2,.33-5.18-.92-6.92a11.81,11.81,0,0,0-2.78-2.18,16.39,16.39,0,0,1-3.72-4.07c-2.28-3.39-4-7.27-6-10.85-2.49-4.48-4.9-9.52-8.59-13.16-5-4.92-12.28-7.33-17.82-2.07-.41.38.37,1,.77.63Z" transform="translate(-184.27 -313.44)"/><path class="cls-5" d="M204.94,363.27a43.27,43.27,0,0,1,2.75-26.12c3.4-7.36,9.38-13.06,16.36-17,.51-.29-.13-1.05-.6-.78-7.12,4.06-13.19,9.9-16.66,17.41A44,44,0,0,0,204,363.3c.11.54,1.06.6.93,0Z" transform="translate(-184.27 -313.44)"/><path class="cls-5" d="M208.12,371.65h-.25c-.64,0-.39.92.16.92h.25c.64,0,.39-.92-.16-.92Z" transform="translate(-184.27 -313.44)"/></g><g id="Layer0_24_MEMBER_0_FILL" data-name="Layer0 24 MEMBER 0 FILL"><path class="cls-7" d="M246.5,375.16a15,15,0,0,0,.5,5.5q.7,2.22,3.85,2.2c2.13,0,3.28-1,3.45-3.2a32.85,32.85,0,0,0,.15-4.5,4.28,4.28,0,0,1-.6-.05,3.93,3.93,0,0,1-3.45-3.1,4.19,4.19,0,0,1-.3.75,19.08,19.08,0,0,1,.1,3.9,19.08,19.08,0,0,0-.1-3.9,3.8,3.8,0,0,1-3.6,2.4m3.8,3.35,0,.95Z" transform="translate(-184.27 -313.44)"/><path class="cls-8" d="M254.5,359.71a42.21,42.21,0,0,0-4.25-.1c-1.67,0-3.08.08-4.25.15s-1.75.93-1.75,2.6a6,6,0,0,0,6,6h.15a6,6,0,0,0,5.85-6C256.25,360.69,255.67,359.81,254.5,359.71Z" transform="translate(-184.27 -313.44)"/><path class="cls-2" d="M288.85,358.66v-.15a3.15,3.15,0,0,0-1.3-2.4,5.52,5.52,0,0,0-3.25-.95,5.06,5.06,0,0,0-1.05.1,5,5,0,0,0-2.15.85,3.06,3.06,0,0,0-1.35,2.45,2.93,2.93,0,0,0,1.35,2.4,5.08,5.08,0,0,0,2.15,1c.33,0,.68,0,1.05,0a5.28,5.28,0,0,0,3.25-1,3,3,0,0,0,1.3-2.3m-69.45-2.55a5,5,0,0,0-2.15-.85,5.06,5.06,0,0,0-1.05-.1,5.52,5.52,0,0,0-3.25.95,3.15,3.15,0,0,0-1.3,2.4v.15A3,3,0,0,0,213,361a5.28,5.28,0,0,0,3.25,1c.37,0,.72,0,1.05,0a5.08,5.08,0,0,0,2.15-1,2.93,2.93,0,0,0,1.35-2.4A3.06,3.06,0,0,0,219.4,356.11Z" transform="translate(-184.27 -313.44)"/><path class="cls-5" d="M279.6,344.86a5.55,5.55,0,1,0,1.6,3.9,5.3,5.3,0,0,0-1.6-3.9m-6.05,3.6a2,2,0,0,1,.65-1.25,1.81,1.81,0,0,1,2.3-.25,1.71,1.71,0,0,1,.95.9,2,2,0,0,1,.25,1.3,2,2,0,0,1-1.35,1.5,1.85,1.85,0,0,1-1.35,0,2.18,2.18,0,0,1-1.15-.85,1.87,1.87,0,0,1-.3-1.35m-44.85-3.6a5.55,5.55,0,1,0,1.6,3.9,5.3,5.3,0,0,0-1.6-3.9m-2.4,2.35a2,2,0,0,1,.65,1.25,1.87,1.87,0,0,1-.3,1.35,2.18,2.18,0,0,1-1.15.85,1.85,1.85,0,0,1-1.35,0,2,2,0,0,1-1.35-1.5,2,2,0,0,1,.25-1.3,1.71,1.71,0,0,1,.95-.9A1.81,1.81,0,0,1,226.3,347.21Z" transform="translate(-184.27 -313.44)"/><path class="cls-9" d="M274.2,347.21a2,2,0,0,0-.65,1.25,1.87,1.87,0,0,0,.3,1.35,2.18,2.18,0,0,0,1.15.85,1.85,1.85,0,0,0,1.35,0,2,2,0,0,0,1.35-1.5,2,2,0,0,0-.25-1.3,1.71,1.71,0,0,0-.95-.9,1.81,1.81,0,0,0-2.3.25M227,348.46a2,2,0,0,0-.65-1.25A1.81,1.81,0,0,0,224,347a1.71,1.71,0,0,0-.95.9,2,2,0,0,0-.25,1.3,2,2,0,0,0,1.35,1.5,1.85,1.85,0,0,0,1.35,0,2.18,2.18,0,0,0,1.15-.85A1.87,1.87,0,0,0,227,348.46Z" transform="translate(-184.27 -313.44)"/></g><g id="Layer0_24_MEMBER_0_1_STROKES" data-name="Layer0 24 MEMBER 0 1 STROKES"><path class="cls-5" d="M250.31,367.9c-2.84,0-5.85-2.33-5.59-5.43a2.2,2.2,0,0,1,2-2.28,14.83,14.83,0,0,1,2.83-.1c2,0,5.68-.76,6.26,2.17s-2.89,5.44-5.47,5.64a.4.4,0,0,0-.38.36c0,2.7-.36,5.7,2.68,7,3.26,1.37,6.75-.75,5.9-4.43-.12-.53-1.07-.6-.92,0,1.09,4.73-6.19,5.18-6.72.8a8.47,8.47,0,0,1,0-2.66c.29-.73-.23.15.45-.21.35-.19,1.17-.27,1.56-.44,2.6-1.11,6.26-7.26,2.24-8.91-2-.83-5.16-.26-7.27-.18-1.59,0-3.33-.11-3.9,1.69-1.31,4.11,2.66,7.91,6.54,7.91.63,0,.37-.92-.18-.92Z" transform="translate(-184.27 -313.44)"/><path class="cls-5" d="M242.3,370.6c-.6,2.37.5,4.54,3,4.95a4.7,4.7,0,0,0,5.52-3.32c.16-.52-.72-1-.9-.43a3.68,3.68,0,0,1-3.18,2.86c-2.37.29-4.2-1.15-3.57-3.63.13-.53-.75-1-.9-.43Z" transform="translate(-184.27 -313.44)"/><path class="cls-5" d="M246,375.06c-.11,2-.23,4.68.88,6.48a4.5,4.5,0,0,0,4.05,1.8c4.32,0,4.13-4.83,4-8.07,0-.54-1-.82-.95-.21.1,2.19.54,6.56-2.17,7.26-1.47.38-3.57,0-4.28-1.44-.79-1.64-.67-3.86-.58-5.61,0-.54-.91-.82-.94-.21Z" transform="translate(-184.27 -313.44)"/><path class="cls-5" d="M249.83,378.41l0,.95a.58.58,0,0,0,.43.55c.21,0,.52-.08.51-.34l0-.95a.56.56,0,0,0-.43-.55c-.21-.05-.52.08-.51.34Z" transform="translate(-184.27 -313.44)"/><path class="cls-5" d="M249.66,372.77a21.8,21.8,0,0,1,.07,3.79c0,.53.9.81.94.21a22.48,22.48,0,0,0-.08-4c-.06-.55-1-.61-.93,0Z" transform="translate(-184.27 -313.44)"/></g></svg>